# xmcd CD database file
#
# Track frame offsets:
#	150
#	20485
#	40620
#	61160
#	85775
#	108615
#	126000
#	143387
#	163870
#	181597
#	203787
#	230369
#	249862
#
# Disc length: 3563 seconds
#
# Revision: 0
# Processed by: cddbd v1.5.1PL0 Copyright (c) Steve Scherf et al.
# Submitted via: CDex 1.50
#
DISCID=990de90d
DTITLE=Various Artist - 2004 Phono Compliation Vol.7 - Pacific Garden Sampler
DYEAR=2004
DGENRE=Jazz
TTITLE0=Pastoral - Missa Johnouchi [Friends]
TTITLE1=Espoir - Missa Johnouchi [Friends]
TTITLE2=Camino De La Luna - Haru [Winter Collection]
TTITLE3=Unconditional Love - Tatsuo Kato [Winter Collection]
TTITLE4=Tema D'amore - Masashi Abe [Playing Love]
TTITLE5=Deborah's Theme - Masashi Abe [Playing Love]
TTITLE6=Rain is over - Randa [Ariel]
TTITLE7=Prayer - Randa [Ariel]
TTITLE8=Provance - Hideyo Takakuwa [Campagne de France]
TTITLE9=Breragne - Hideyo Takakuwa [Campagne de France]
TTITLE10=Wave - Hatsuho Furukawa ¿Ü [Smooth Jazz Collection]
TTITLE11=Desflando - Hatsuho Furukawa ¿Ü [Smooth Jazz Collection]
TTITLE12=Gymnopedies no.1 - Stella Mirus [Air]
EXTD=YEAR: 2004
EXTT0=
EXTT1=
EXTT2=
EXTT3=
EXTT4=
EXTT5=
EXTT6=
EXTT7=
EXTT8=
EXTT9=
EXTT10=
EXTT11=
EXTT12=
PLAYORDER=
